<?xml version="1.0" encoding="UTF-8" standalone="no"?>
<svg xmlns="http://www.w3.org/2000/svg" xmlns:xlink="http://www.w3.org/1999/xlink" contentStyleType="text/css" height="490px" preserveAspectRatio="none" style="width:716px;height:490px;background:#FFFFFF;" version="1.1" viewBox="0 0 716 490" width="716px" zoomAndPan="magnify"><defs/><g><!--MD5=[b83b38d96c1b55f89b594f1f6d48380d]
cluster GROMACS--><g id="cluster_GROMACS"><path d="M487,275.5 L568,275.5 A3.75,3.75 0 0 1 570.5,278 L577.5,297.7969 L648,297.7969 A2.5,2.5 0 0 1 650.5,300.2969 L650.5,372 A2.5,2.5 0 0 1 648,374.5 L487,374.5 A2.5,2.5 0 0 1 484.5,372 L484.5,278 A2.5,2.5 0 0 1 487,275.5 " fill="none" style="stroke:#000000;stroke-width:1.5;"/><line style="stroke:#000000;stroke-width:1.5;" x1="484.5" x2="577.5" y1="297.7969" y2="297.7969"/><text fill="#000000" font-family="sans-serif" font-size="14" font-weight="bold" lengthAdjust="spacing" textLength="80" x="488.5" y="290.4951">GROMACS</text></g><!--MD5=[8eac272d9516a21cd4c9a0141f0c28ed]
class GROMACS_CLI--><g id="elem_GROMACS_CLI"><rect codeLine="37" fill="#F1F1F1" height="48" id="GROMACS_CLI" rx="2.5" ry="2.5" style="stroke:#181818;stroke-width:0.5;" width="134" x="500.5" y="310.5"/><ellipse cx="515.5" cy="326.5" fill="#B4A7E5" rx="11" ry="11" style="stroke:#181818;stroke-width:1.0;"/><path d="M516.4531,323.2813 L518.1719,323.2813 C518.5625,323.2813 518.75,323.25 518.875,323.1719 C519.1406,323.0156 519.2813,322.7344 519.2813,322.4375 C519.2813,322.1719 519.1719,321.9063 518.9375,321.7344 C518.7656,321.625 518.625,321.5938 518.1719,321.5938 L513.0313,321.5938 C512.5938,321.5938 512.4688,321.6094 512.3125,321.7031 C512.0625,321.8594 511.9063,322.1563 511.9063,322.4375 C511.9063,322.7188 512.0469,322.9688 512.2656,323.1406 C512.4219,323.25 512.6094,323.2813 513.0313,323.2813 L514.75,323.2813 L514.75,329.7969 L513.0313,329.7969 C512.5938,329.7969 512.4688,329.8125 512.3125,329.9219 C512.0625,330.0781 511.9063,330.3594 511.9063,330.6563 C511.9063,330.9063 512.0469,331.1719 512.2656,331.3281 C512.4219,331.4531 512.625,331.5 513.0313,331.5 L518.1719,331.5 C518.9219,331.5 519.2813,331.2188 519.2813,330.6563 C519.2813,330.375 519.1719,330.125 518.9375,329.9531 C518.7656,329.8281 518.625,329.7969 518.1719,329.7969 L516.4531,329.7969 L516.4531,323.2813 Z " fill="#000000"/><text fill="#000000" font-family="sans-serif" font-size="14" font-style="italic" lengthAdjust="spacing" textLength="102" x="529.5" y="331.3467">GROMACS_CLI</text><line style="stroke:#181818;stroke-width:0.5;" x1="501.5" x2="633.5" y1="342.5" y2="342.5"/><line style="stroke:#181818;stroke-width:0.5;" x1="501.5" x2="633.5" y1="350.5" y2="350.5"/></g><!--MD5=[8ffb91e9be558c0e6b007c554622bff8]
class RunManager--><g id="elem_RunManager"><rect codeLine="1" fill="#F1F1F1" height="227.2656" id="RunManager" rx="2.5" ry="2.5" style="stroke:#181818;stroke-width:0.5;" width="263" x="211" y="7"/><ellipse cx="294.25" cy="23" fill="#ADD1B2" rx="11" ry="11" style="stroke:#181818;stroke-width:1.0;"/><path d="M296.5938,18.6719 C295.6563,18.2344 295.0625,18.0938 294.1875,18.0938 C291.5625,18.0938 289.5625,20.1719 289.5625,22.8906 L289.5625,24.0156 C289.5625,26.5938 291.6719,28.4844 294.5625,28.4844 C295.7813,28.4844 296.9375,28.1875 297.6875,27.6406 C298.2656,27.2344 298.5938,26.7813 298.5938,26.3906 C298.5938,25.9375 298.2031,25.5469 297.7344,25.5469 C297.5156,25.5469 297.3125,25.625 297.125,25.8125 C296.6719,26.2969 296.6719,26.2969 296.4844,26.3906 C296.0625,26.6563 295.375,26.7813 294.6094,26.7813 C292.5625,26.7813 291.2656,25.6875 291.2656,23.9844 L291.2656,22.8906 C291.2656,21.1094 292.5156,19.7969 294.25,19.7969 C294.8281,19.7969 295.4375,19.9531 295.9063,20.2031 C296.3906,20.4844 296.5625,20.7031 296.6563,21.1094 C296.7188,21.5156 296.75,21.6406 296.8906,21.7656 C297.0313,21.9063 297.2656,22.0156 297.4844,22.0156 C297.75,22.0156 298.0156,21.875 298.1875,21.6563 C298.2969,21.5 298.3281,21.3125 298.3281,20.8906 L298.3281,19.4688 C298.3281,19.0313 298.3125,18.9063 298.2188,18.75 C298.0625,18.4844 297.7813,18.3438 297.4844,18.3438 C297.1875,18.3438 296.9844,18.4375 296.7656,18.75 L296.5938,18.6719 Z " fill="#000000"/><text fill="#000000" font-family="sans-serif" font-size="14" lengthAdjust="spacing" textLength="88" x="314.75" y="27.8467">RunManager</text><line style="stroke:#181818;stroke-width:0.5;" x1="212" x2="473" y1="39" y2="39"/><text fill="#000000" font-family="sans-serif" font-size="14" lengthAdjust="spacing" textLength="105" x="217" y="55.9951">config : Config</text><text fill="#000000" font-family="sans-serif" font-size="14" lengthAdjust="spacing" textLength="96" x="217" y="72.292">tasks : Queue</text><text fill="#000000" font-family="sans-serif" font-size="14" lengthAdjust="spacing" textLength="38" x="217" y="88.5889">state</text><text fill="#000000" font-family="sans-serif" font-size="14" lengthAdjust="spacing" textLength="77" x="217" y="104.8857">file history</text><text fill="#000000" font-family="sans-serif" font-size="14" lengthAdjust="spacing" textLength="104" x="217" y="121.1826">chosen_recipe</text><line style="stroke:#181818;stroke-width:0.5;" x1="212" x2="473" y1="128.4844" y2="128.4844"/><text fill="#000000" font-family="sans-serif" font-size="14" lengthAdjust="spacing" textLength="33" x="217" y="145.4795">run()</text><text fill="#000000" font-family="sans-serif" font-size="14" lengthAdjust="spacing" textLength="63" x="217" y="161.7764">run_MD()</text><text fill="#000000" font-family="sans-serif" font-size="14" lengthAdjust="spacing" textLength="124" x="217" y="178.0732">query_reactions()</text><text fill="#000000" font-family="sans-serif" font-size="14" lengthAdjust="spacing" textLength="125" x="217" y="194.3701">decide_reaction()</text><text fill="#000000" font-family="sans-serif" font-size="14" lengthAdjust="spacing" textLength="251" x="217" y="210.667">execute_recipe(ConversionRecipe)</text><text fill="#000000" font-family="sans-serif" font-size="14" lengthAdjust="spacing" textLength="43" x="217" y="226.9639">next()</text></g><!--MD5=[4bf8aff396996fef456cd268939daa24]
class Config--><g id="elem_Config"><rect codeLine="14" fill="#F1F1F1" height="113.1875" id="Config" rx="2.5" ry="2.5" style="stroke:#181818;stroke-width:0.5;" width="200" x="509.5" y="64"/><ellipse cx="581.75" cy="80" fill="#ADD1B2" rx="11" ry="11" style="stroke:#181818;stroke-width:1.0;"/><path d="M584.0938,75.6719 C583.1563,75.2344 582.5625,75.0938 581.6875,75.0938 C579.0625,75.0938 577.0625,77.1719 577.0625,79.8906 L577.0625,81.0156 C577.0625,83.5938 579.1719,85.4844 582.0625,85.4844 C583.2813,85.4844 584.4375,85.1875 585.1875,84.6406 C585.7656,84.2344 586.0938,83.7813 586.0938,83.3906 C586.0938,82.9375 585.7031,82.5469 585.2344,82.5469 C585.0156,82.5469 584.8125,82.625 584.625,82.8125 C584.1719,83.2969 584.1719,83.2969 583.9844,83.3906 C583.5625,83.6563 582.875,83.7813 582.1094,83.7813 C580.0625,83.7813 578.7656,82.6875 578.7656,80.9844 L578.7656,79.8906 C578.7656,78.1094 580.0156,76.7969 581.75,76.7969 C582.3281,76.7969 582.9375,76.9531 583.4063,77.2031 C583.8906,77.4844 584.0625,77.7031 584.1563,78.1094 C584.2188,78.5156 584.25,78.6406 584.3906,78.7656 C584.5313,78.9063 584.7656,79.0156 584.9844,79.0156 C585.25,79.0156 585.5156,78.875 585.6875,78.6563 C585.7969,78.5 585.8281,78.3125 585.8281,77.8906 L585.8281,76.4688 C585.8281,76.0313 585.8125,75.9063 585.7188,75.75 C585.5625,75.4844 585.2813,75.3438 584.9844,75.3438 C584.6875,75.3438 584.4844,75.4375 584.2656,75.75 L584.0938,75.6719 Z " fill="#000000"/><text fill="#000000" font-family="sans-serif" font-size="14" lengthAdjust="spacing" textLength="47" x="602.25" y="84.8467">Config</text><line style="stroke:#181818;stroke-width:0.5;" x1="510.5" x2="708.5" y1="96" y2="96"/><text fill="#000000" font-family="sans-serif" font-size="14" lengthAdjust="spacing" textLength="68" x="515.5" y="112.9951">file paths</text><text fill="#000000" font-family="sans-serif" font-size="14" lengthAdjust="spacing" textLength="103" x="515.5" y="129.292">task sequence</text><text fill="#000000" font-family="sans-serif" font-size="14" lengthAdjust="spacing" textLength="15" x="515.5" y="145.5889">...</text><line style="stroke:#181818;stroke-width:0.5;" x1="510.5" x2="708.5" y1="152.8906" y2="152.8906"/><text fill="#000000" font-family="sans-serif" font-size="14" lengthAdjust="spacing" textLength="188" x="515.5" y="169.8857">__init__(configuration_file)</text></g><!--MD5=[dd0c9a8faef956caa07cc9a928fbe7e6]
class ConversionRecipe--><g id="elem_ConversionRecipe"><rect codeLine="20" fill="#F1F1F1" height="80.5938" id="ConversionRecipe" rx="2.5" ry="2.5" style="stroke:#181818;stroke-width:0.5;" width="162" x="64.5" y="294"/><ellipse cx="79.5" cy="310" fill="#ADD1B2" rx="11" ry="11" style="stroke:#181818;stroke-width:1.0;"/><path d="M81.8438,305.6719 C80.9063,305.2344 80.3125,305.0938 79.4375,305.0938 C76.8125,305.0938 74.8125,307.1719 74.8125,309.8906 L74.8125,311.0156 C74.8125,313.5938 76.9219,315.4844 79.8125,315.4844 C81.0313,315.4844 82.1875,315.1875 82.9375,314.6406 C83.5156,314.2344 83.8438,313.7813 83.8438,313.3906 C83.8438,312.9375 83.4531,312.5469 82.9844,312.5469 C82.7656,312.5469 82.5625,312.625 82.375,312.8125 C81.9219,313.2969 81.9219,313.2969 81.7344,313.3906 C81.3125,313.6563 80.625,313.7813 79.8594,313.7813 C77.8125,313.7813 76.5156,312.6875 76.5156,310.9844 L76.5156,309.8906 C76.5156,308.1094 77.7656,306.7969 79.5,306.7969 C80.0781,306.7969 80.6875,306.9531 81.1563,307.2031 C81.6406,307.4844 81.8125,307.7031 81.9063,308.1094 C81.9688,308.5156 82,308.6406 82.1406,308.7656 C82.2813,308.9063 82.5156,309.0156 82.7344,309.0156 C83,309.0156 83.2656,308.875 83.4375,308.6563 C83.5469,308.5 83.5781,308.3125 83.5781,307.8906 L83.5781,306.4688 C83.5781,306.0313 83.5625,305.9063 83.4688,305.75 C83.3125,305.4844 83.0313,305.3438 82.7344,305.3438 C82.4375,305.3438 82.2344,305.4375 82.0156,305.75 L81.8438,305.6719 Z " fill="#000000"/><text fill="#000000" font-family="sans-serif" font-size="14" lengthAdjust="spacing" textLength="130" x="93.5" y="314.8467">ConversionRecipe</text><line style="stroke:#181818;stroke-width:0.5;" x1="65.5" x2="225.5" y1="326" y2="326"/><text fill="#000000" font-family="sans-serif" font-size="14" lengthAdjust="spacing" textLength="34" x="70.5" y="342.9951">type</text><text fill="#000000" font-family="sans-serif" font-size="14" lengthAdjust="spacing" textLength="66" x="70.5" y="359.292">atom_idx</text><line style="stroke:#181818;stroke-width:0.5;" x1="65.5" x2="225.5" y1="366.5938" y2="366.5938"/></g><!--MD5=[ddc36e88a2144077ea4257ea6b073d34]
class Reaction--><g id="elem_Reaction"><rect codeLine="25" fill="#F1F1F1" height="64.2969" id="Reaction" rx="2.5" ry="2.5" style="stroke:#181818;stroke-width:0.5;" width="162" x="261.5" y="302.5"/><ellipse cx="306.75" cy="318.5" fill="#A9DCDF" rx="11" ry="11" style="stroke:#181818;stroke-width:1.0;"/><path d="M308.8281,320.3125 L309.2188,321.2969 L308.8281,321.2969 C308.375,321.2969 308.2656,321.3125 308.1094,321.4219 C307.8594,321.5781 307.7031,321.8594 307.7031,322.1563 C307.7031,322.4219 307.8438,322.6719 308.0625,322.8281 C308.2031,322.9531 308.4063,323 308.8281,323 L311.1875,323 C311.5469,323 311.7656,322.9688 311.9063,322.875 C312.1563,322.7344 312.3125,322.4375 312.3125,322.1563 C312.3125,321.875 312.1719,321.625 311.9531,321.4688 C311.7813,321.3281 311.625,321.2969 311.1563,321.2969 L307.7656,313.0938 L304.0938,313.0938 C303.6406,313.0938 303.5156,313.1094 303.3594,313.2031 C303.1094,313.375 302.9531,313.6563 302.9531,313.9375 C302.9531,314.2188 303.0938,314.4688 303.3125,314.6406 C303.4844,314.75 303.6563,314.7813 304.0938,314.7813 L305.1719,314.7813 L302.5313,321.2969 C302.1094,321.2969 301.9531,321.3125 301.7969,321.4219 C301.5469,321.5781 301.3906,321.8594 301.3906,322.1563 C301.3906,322.7188 301.7656,323 302.5156,323 L304.7813,323 C305.1406,323 305.3594,322.9688 305.4844,322.875 C305.75,322.7344 305.8906,322.4375 305.8906,322.1563 C305.8906,321.875 305.7656,321.625 305.5469,321.4531 C305.375,321.3281 305.2344,321.2969 304.7813,321.2969 L304.3906,321.2969 L304.7813,320.3125 L308.8281,320.3125 Z M308.125,318.6094 L305.4531,318.6094 L306.7969,315.3438 L308.125,318.6094 Z " fill="#000000"/><text fill="#000000" font-family="sans-serif" font-size="14" font-style="italic" lengthAdjust="spacing" textLength="63" x="327.25" y="323.3467">Reaction</text><line style="stroke:#181818;stroke-width:0.5;" x1="262.5" x2="422.5" y1="334.5" y2="334.5"/><line style="stroke:#181818;stroke-width:0.5;" x1="262.5" x2="422.5" y1="342.5" y2="342.5"/><text fill="#000000" font-family="sans-serif" font-size="14" lengthAdjust="spacing" textLength="150" x="267.5" y="359.4951">get_reaction_result()</text></g><!--MD5=[4285fdc6e6a51a600e72f80959553948]
class HAT--><g id="elem_HAT"><rect codeLine="28" fill="#F1F1F1" height="48" id="HAT" rx="2.5" ry="2.5" style="stroke:#181818;stroke-width:0.5;" width="61" x="243" y="435"/><ellipse cx="258" cy="451" fill="#ADD1B2" rx="11" ry="11" style="stroke:#181818;stroke-width:1.0;"/><path d="M260.3438,446.6719 C259.4063,446.2344 258.8125,446.0938 257.9375,446.0938 C255.3125,446.0938 253.3125,448.1719 253.3125,450.8906 L253.3125,452.0156 C253.3125,454.5938 255.4219,456.4844 258.3125,456.4844 C259.5313,456.4844 260.6875,456.1875 261.4375,455.6406 C262.0156,455.2344 262.3438,454.7813 262.3438,454.3906 C262.3438,453.9375 261.9531,453.5469 261.4844,453.5469 C261.2656,453.5469 261.0625,453.625 260.875,453.8125 C260.4219,454.2969 260.4219,454.2969 260.2344,454.3906 C259.8125,454.6563 259.125,454.7813 258.3594,454.7813 C256.3125,454.7813 255.0156,453.6875 255.0156,451.9844 L255.0156,450.8906 C255.0156,449.1094 256.2656,447.7969 258,447.7969 C258.5781,447.7969 259.1875,447.9531 259.6563,448.2031 C260.1406,448.4844 260.3125,448.7031 260.4063,449.1094 C260.4688,449.5156 260.5,449.6406 260.6406,449.7656 C260.7813,449.9063 261.0156,450.0156 261.2344,450.0156 C261.5,450.0156 261.7656,449.875 261.9375,449.6563 C262.0469,449.5 262.0781,449.3125 262.0781,448.8906 L262.0781,447.4688 C262.0781,447.0313 262.0625,446.9063 261.9688,446.75 C261.8125,446.4844 261.5313,446.3438 261.2344,446.3438 C260.9375,446.3438 260.7344,446.4375 260.5156,446.75 L260.3438,446.6719 Z " fill="#000000"/><text fill="#000000" font-family="sans-serif" font-size="14" lengthAdjust="spacing" textLength="29" x="272" y="455.8467">HAT</text><line style="stroke:#181818;stroke-width:0.5;" x1="244" x2="303" y1="467" y2="467"/><line style="stroke:#181818;stroke-width:0.5;" x1="244" x2="303" y1="475" y2="475"/></g><!--MD5=[11d5dae097a6b13f0e05ed8ff928fd65]
class HomolyticBreak--><g id="elem_HomolyticBreak"><rect codeLine="30" fill="#F1F1F1" height="48" id="HomolyticBreak" rx="2.5" ry="2.5" style="stroke:#181818;stroke-width:0.5;" width="147" x="339" y="435"/><ellipse cx="354" cy="451" fill="#ADD1B2" rx="11" ry="11" style="stroke:#181818;stroke-width:1.0;"/><path d="M356.3438,446.6719 C355.4063,446.2344 354.8125,446.0938 353.9375,446.0938 C351.3125,446.0938 349.3125,448.1719 349.3125,450.8906 L349.3125,452.0156 C349.3125,454.5938 351.4219,456.4844 354.3125,456.4844 C355.5313,456.4844 356.6875,456.1875 357.4375,455.6406 C358.0156,455.2344 358.3438,454.7813 358.3438,454.3906 C358.3438,453.9375 357.9531,453.5469 357.4844,453.5469 C357.2656,453.5469 357.0625,453.625 356.875,453.8125 C356.4219,454.2969 356.4219,454.2969 356.2344,454.3906 C355.8125,454.6563 355.125,454.7813 354.3594,454.7813 C352.3125,454.7813 351.0156,453.6875 351.0156,451.9844 L351.0156,450.8906 C351.0156,449.1094 352.2656,447.7969 354,447.7969 C354.5781,447.7969 355.1875,447.9531 355.6563,448.2031 C356.1406,448.4844 356.3125,448.7031 356.4063,449.1094 C356.4688,449.5156 356.5,449.6406 356.6406,449.7656 C356.7813,449.9063 357.0156,450.0156 357.2344,450.0156 C357.5,450.0156 357.7656,449.875 357.9375,449.6563 C358.0469,449.5 358.0781,449.3125 358.0781,448.8906 L358.0781,447.4688 C358.0781,447.0313 358.0625,446.9063 357.9688,446.75 C357.8125,446.4844 357.5313,446.3438 357.2344,446.3438 C356.9375,446.3438 356.7344,446.4375 356.5156,446.75 L356.3438,446.6719 Z " fill="#000000"/><text fill="#000000" font-family="sans-serif" font-size="14" lengthAdjust="spacing" textLength="115" x="368" y="455.8467">HomolyticBreak</text><line style="stroke:#181818;stroke-width:0.5;" x1="340" x2="485" y1="467" y2="467"/><line style="stroke:#181818;stroke-width:0.5;" x1="340" x2="485" y1="475" y2="475"/></g><!--MD5=[2c642f17a5d827f98a20a4460ad56dfc]
class ChangeManager--><g id="elem_ChangeManager"><rect codeLine="32" fill="#F1F1F1" height="64.2969" id="ChangeManager" rx="2.5" ry="2.5" style="stroke:#181818;stroke-width:0.5;" width="169" x="7" y="88.5"/><ellipse cx="31.9" cy="104.5" fill="#ADD1B2" rx="11" ry="11" style="stroke:#181818;stroke-width:1.0;"/><path d="M34.2438,100.1719 C33.3063,99.7344 32.7125,99.5938 31.8375,99.5938 C29.2125,99.5938 27.2125,101.6719 27.2125,104.3906 L27.2125,105.5156 C27.2125,108.0938 29.3219,109.9844 32.2125,109.9844 C33.4313,109.9844 34.5875,109.6875 35.3375,109.1406 C35.9156,108.7344 36.2438,108.2813 36.2438,107.8906 C36.2438,107.4375 35.8531,107.0469 35.3844,107.0469 C35.1656,107.0469 34.9625,107.125 34.775,107.3125 C34.3219,107.7969 34.3219,107.7969 34.1344,107.8906 C33.7125,108.1563 33.025,108.2813 32.2594,108.2813 C30.2125,108.2813 28.9156,107.1875 28.9156,105.4844 L28.9156,104.3906 C28.9156,102.6094 30.1656,101.2969 31.9,101.2969 C32.4781,101.2969 33.0875,101.4531 33.5563,101.7031 C34.0406,101.9844 34.2125,102.2031 34.3063,102.6094 C34.3688,103.0156 34.4,103.1406 34.5406,103.2656 C34.6813,103.4063 34.9156,103.5156 35.1344,103.5156 C35.4,103.5156 35.6656,103.375 35.8375,103.1563 C35.9469,103 35.9781,102.8125 35.9781,102.3906 L35.9781,100.9688 C35.9781,100.5313 35.9625,100.4063 35.8688,100.25 C35.7125,99.9844 35.4313,99.8438 35.1344,99.8438 C34.8375,99.8438 34.6344,99.9375 34.4156,100.25 L34.2438,100.1719 Z " fill="#000000"/><text fill="#000000" font-family="sans-serif" font-size="14" lengthAdjust="spacing" textLength="115" x="48.1" y="109.3467">ChangeManager</text><line style="stroke:#181818;stroke-width:0.5;" x1="8" x2="175" y1="120.5" y2="120.5"/><line style="stroke:#181818;stroke-width:0.5;" x1="8" x2="175" y1="128.5" y2="128.5"/><text fill="#000000" font-family="sans-serif" font-size="14" lengthAdjust="spacing" textLength="157" x="13" y="145.4951">modify_connectivity()</text></g><!--MD5=[8d7edc55af6061fcc831e37c5e508dd7]
link Reaction to HAT--><g id="link_Reaction_HAT"><path codeLine="41" d="M324.91,366.729 C316.254,382.097 305.711,400.8145 296.431,417.2899 " fill="none" id="Reaction-to-HAT" style="stroke:#181818;stroke-width:1.0;"/><polygon fill="none" points="302.397,420.9615,286.482,434.9519,290.199,414.0907,302.397,420.9615" style="stroke:#181818;stroke-width:1.0;"/></g><!--MD5=[ada935222d86b79a55df4cc1fc2bbc28]
link Reaction to HomolyticBreak--><g id="link_Reaction_HomolyticBreak"><path codeLine="42" d="M360.345,366.729 C369.174,382.18 379.938,401.017 389.39,417.5569 " fill="none" id="Reaction-to-HomolyticBreak" style="stroke:#181818;stroke-width:1.0;"/><polygon fill="none" points="395.485,414.1141,399.33,434.9519,383.329,421.0601,395.485,414.1141" style="stroke:#181818;stroke-width:1.0;"/></g><!--MD5=[c588ed03a5d363b1489344558ddd8dd4]
link RunManager to Config--><g id="link_RunManager_Config"><path codeLine="43" d="M474.175,120.5 C485.892,120.5 497.61,120.5 509.328,120.5 " fill="none" id="RunManager-Config" style="stroke:#181818;stroke-width:1.0;"/></g><!--MD5=[996995c30abb94956b17821081024700]
link RunManager to GROMACS_CLI--><g id="link_RunManager_GROMACS_CLI"><path codeLine="44" d="M461.918,234.018 C492.63,262.956 522.652,291.244 542.782,310.211 " fill="none" id="RunManager-GROMACS_CLI" style="stroke:#181818;stroke-width:1.0;"/></g><!--MD5=[9d16f540dc9e52e354670ebf8e5cfa91]
link RunManager to Reaction--><g id="link_RunManager_Reaction"><path codeLine="45" d="M342.5,234.018 C342.5,259.19 342.5,283.87 342.5,302.351 " fill="none" id="RunManager-Reaction" style="stroke:#181818;stroke-width:1.0;"/></g><!--MD5=[79eeeb36a37716a216141016993ea146]
link ConversionRecipe to Reaction--><g id="link_ConversionRecipe_Reaction"><path codeLine="46" d="M226.686,334.5 C238.146,334.5 249.607,334.5 261.068,334.5 " fill="none" id="ConversionRecipe-Reaction" style="stroke:#181818;stroke-width:1.0;"/></g><!--MD5=[9f4749dfd4e2d77c811bde584397f241]
link ChangeManager to RunManager--><g id="link_ChangeManager_RunManager"><path codeLine="47" d="M176.311,120.5 C187.779,120.5 199.248,120.5 210.717,120.5 " fill="none" id="ChangeManager-RunManager" style="stroke:#181818;stroke-width:1.0;"/></g><!--MD5=[16becea0f5ec2c15bacfef78987316a3]
link Config to GROMACS_CLI--><!--MD5=[f26ed4b0f286bcca3351de809de81950]
@startuml
class           RunManager{
config : Config
tasks : Queue
state
file history
chosen_recipe
run()
run_MD()
query_reactions()
decide_reaction()
execute_recipe(ConversionRecipe)
next()
}
class          Config{
file paths
task sequence
...
__init__(configuration_file)
}
class           ConversionRecipe{
type
atom_idx
}

abstract class           Reaction{
get_reaction_result()
}
class           HAT{
}
class           HomolyticBreak{
}
class           ChangeManager{
modify_connectivity()
}

package GROMACS{
interface GROMACS_CLI{
}
}

Reaction - -|> HAT
Reaction - -|> HomolyticBreak
RunManager -right- Config
RunManager -right- GROMACS_CLI 
RunManager - - Reaction 
ConversionRecipe - Reaction
ChangeManager - RunManager
Config -[hidden]-> GROMACS_CLI
@enduml

PlantUML version 1.2022.8beta2(Unknown compile time)
(GPL source distribution)
Java Runtime: Java(TM) SE Runtime Environment
JVM: Java HotSpot(TM) 64-Bit Server VM
Default Encoding: UTF-8
Language: en
Country: US
--></g></svg>